<svg xmlns="http://www.w3.org/2000/svg" viewBox="-40 167.5 438.510009765625 241.373854598999"> <svg xmlns="http://www.w3.org/2000/svg" xmlns:xlink="http://www.w3.org/1999/xlink" version="1.0" id="Layer_1" x="30" y="237.5" viewBox="104.60000610351562 33.9000129699707 294.6000061035156 429.2001037597656" xml:space="preserve" height="100" width="68.63932154196962" preserveAspectRatio="xMinYMin" enable-background="new 0 0 500 500" style="overflow: visible;"><polygon class="st0" points="283.7,266.2 157.8,335.6 251.9,378.8 " style="fill: #F16913;"></polygon><polygon class="st1" points="289.8,269 258.4,380.3 342.8,385.4 " style="fill: #D94801;"></polygon><polygon class="st2" points="277.2,41.8 233.8,46.9 180.6,87 252.3,65.7 " style="fill: #FDAE6B;"></polygon><polygon class="st3" points="315.3,124.8 383.9,158 343.6,108.2 286.4,42.2 258.8,68.7 " style="fill: #FD8D3C;"></polygon><polygon class="st0" points="390.8,168.8 322.9,135.9 366.5,201 " style="fill: #F16913;"></polygon><polygon class="st2" points="183.9,149.6 228.5,152.9 307.1,126.1 254.1,73.4 " style="fill: #FDAE6B;"></polygon><polygon class="st2" points="290.2,254.6 359.1,207.6 236.5,162.6 " style="fill: #FDAE6B;"></polygon><polygon class="st3" points="238.9,156.4 357.9,200.1 312,131.5 " style="fill: #FD8D3C;"></polygon><polygon class="st1" points="153.6,330.4 278.5,261.4 151.5,245.3 " style="fill: #D94801;"></polygon><polygon class="st4" points="243.4,75.3 167.8,97.8 178.6,145.5 " style="fill: #FDD0A2;"></polygon><polygon class="st0" points="282.8,255.2 228.3,161.8 155,239.1 " style="fill: #F16913;"></polygon><polygon class="st1" points="362.3,213.5 293.3,260.6 346.1,376.4 " style="fill: #D94801;"></polygon><path class="st5" d="M347,392.3l-82.8-4.9l71.6,58c5.1-3.8,20.7-20.2,35.5-36.9c-0.3-0.1-0.7-0.2-1-0.4L347,392.3z" style="fill: #AA3000;"></path><path class="st5" d="M351.7,387.4l22.4,15.1c0.6,0.4,0.9,0.9,1.2,1.5c0.1-0.1,0.2-0.2,0.3-0.4l14.2-98l-21.9-80.6L351.7,387.4z" style="fill: #AA3000;"></path><polygon class="st1" points="390.3,282.2 392.4,177.7 370,207.4 " style="fill: #D94801;"></polygon><path class="st5" d="M242.1,456.1c16.3-1.9,64.9-7.3,84.8-9.3l-70.7-57.3L242.1,456.1z" style="fill: #AA3000;"></path><polygon class="st3" points="221.7,159 178.1,155.8 113.9,228.5 147,237.8 " style="fill: #FD8D3C;"></polygon><polygon class="st0" points="144.8,244.1 111.2,234.7 111.2,297.7 146.9,328.5 " style="fill: #F16913;"></polygon><polygon class="st2" points="162.9,106.4 118.7,213.1 173.1,151.5 " style="fill: #FDAE6B;"></polygon><polygon class="st1" points="154.9,341.6 166.9,405 235.7,454.2 250.2,385.3 " style="fill: #D94801;"></polygon><polygon class="st1" points="118.9,313.1 156.4,385.2 147.3,337.7 " style="fill: #D94801;"></polygon><path d="M399.2,166.7c0-0.1,0-0.1-0.1-0.2c0-0.1-0.1-0.2-0.1-0.2c-0.1-0.3-0.3-0.6-0.5-0.9c0,0,0,0,0,0l-49.8-61.5l-59.6-68.8  c0,0-0.1,0-0.1-0.1c0,0,0,0,0-0.1c0,0-0.1,0-0.1-0.1c-0.3-0.3-0.6-0.5-0.9-0.6c0,0-0.1-0.1-0.1-0.1c-0.3-0.1-0.7-0.2-1.1-0.2  c-0.1,0-0.2,0-0.3,0c-0.1,0-0.2,0-0.3,0l-54.2,6.3c-0.6,0.1-1.1,0.3-1.6,0.7l-68.6,51.8c0,0,0,0,0,0c0,0-0.1,0.1-0.1,0.1  c-0.2,0.2-0.4,0.4-0.6,0.7c-0.1,0.1-0.1,0.2-0.2,0.3c0,0.1-0.1,0.2-0.1,0.3l-56,134.8c0,0,0,0.1,0,0.1c-0.1,0.3-0.2,0.7-0.2,1  c0,0,0,0.1,0,0.1v68.9c0,0.1,0,0.1,0,0.2c0,0.1,0,0.1,0,0.2c0,0.4,0.1,0.7,0.3,1c0,0,0,0.1,0,0.1c0,0,0,0,0,0l56,107.7  c0,0,0.1,0.1,0.1,0.1c0,0.1,0.1,0.1,0.1,0.2c0.2,0.2,0.3,0.4,0.5,0.6c0.1,0.1,0.1,0.1,0.2,0.2c0,0,0.1,0.1,0.1,0.1l74,53  c0,0,0,0,0,0c0,0,0.1,0,0.1,0.1c0.3,0.2,0.6,0.3,1,0.4c0,0,0.1,0,0.1,0.1c0.2,0,0.5,0.1,0.7,0.1c0,0,0,0,0,0c0,0,0,0,0,0  c0,0,0,0,0,0c0,0,0,0,0,0c0.1,0,0.2,0,0.4,0c37.2-4.2,93.8-10.6,97.1-10.6c1.6,0,6,0,45.8-45.3c0.4-0.5,0.7-1.1,0.8-1.7l14.4-99.6  c0,0,0,0,0,0c0,0,0,0,0,0c0-0.1,0-0.2,0-0.4l2.8-138c0,0,0,0,0,0C399.2,167.3,399.2,167,399.2,166.7z M238.9,156.4l73-24.8  l45.9,68.5L238.9,156.4z M359.1,207.6l-68.9,47l-53.7-92.1L359.1,207.6z M228.5,152.9l-44.6-3.3l70.3-76.1l53,52.7L228.5,152.9z   M282.8,255.2L155,239.1l73.3-77.3L282.8,255.2z M278.5,261.4l-125,68.9l-2.1-85L278.5,261.4z M283.7,266.2l-31.8,112.6l-94.1-43.1  L283.7,266.2z M289.8,269l53,116.3l-84.4-5L289.8,269z M293.3,260.6l69-47.1l-16.2,162.9L293.3,260.6z M322.9,135.9l67.9,32.9  L366.5,201L322.9,135.9z M286.4,42.2l57.2,66l40.3,49.9l-68.7-33.2l-56.5-56.1L286.4,42.2z M233.8,46.9l43.4-5.1l-24.9,23.9  L180.6,87L233.8,46.9z M243.4,75.3l-64.8,70.2l-10.8-47.7L243.4,75.3z M162.9,106.4l10.2,45l-54.4,61.6L162.9,106.4z M178.1,155.8  l43.5,3.2L147,237.8l-33.1-9.3L178.1,155.8z M111.2,234.7l33.5,9.4l2.1,84.4l-35.6-30.8V234.7z M118.9,313.1l28.4,24.6l9,47.5  L118.9,313.1z M235.7,454.2L166.9,405l-12-63.3l95.4,43.7L235.7,454.2z M242.1,456.1l14.1-66.6l70.7,57.3  C307,448.7,258.4,454.2,242.1,456.1z M335.8,445.3l-71.6-58l82.8,4.9l23.3,15.7c0.3,0.2,0.7,0.3,1,0.4  C356.5,425.1,340.9,441.5,335.8,445.3z M375.5,403.7c-0.1,0.1-0.2,0.2-0.3,0.4c-0.2-0.6-0.6-1.1-1.2-1.5l-22.4-15.1l16.2-162.3  l21.9,80.6L375.5,403.7z M390.3,282.2L370,207.4l22.4-29.7L390.3,282.2z" style=""></path></svg> <svg y="322.8438539123535" viewBox="0.5099999904632568 4.800000190734863 209.510009765625 16.030000686645508" x="119" height="16.030000686645508" width="209.510009765625" style="overflow: visible;"><g fill="#FD8D3C" fill-opacity="1" style=""><path d="M5.52 17.10L0.51 17.10L0.51 16.32L0.99 16.32Q1.28 16.32 1.51 16.25Q1.74 16.18 1.88 15.94Q2.02 15.71 2.02 15.25L2.02 15.25L2.02 7.50Q2.02 7.06 1.87 6.83Q1.73 6.61 1.50 6.54Q1.26 6.46 0.99 6.46L0.99 6.46L0.51 6.46L0.51 5.68L5.04 5.68Q7.25 5.68 8.34 6.38Q9.44 7.09 9.44 8.58L9.44 8.58Q9.44 9.28 9.18 9.76Q8.93 10.24 8.48 10.54Q8.03 10.85 7.42 11.04L7.42 11.04L7.42 11.12Q8.16 11.26 8.72 11.64Q9.28 12.02 9.60 12.60Q9.92 13.18 9.92 13.98L9.92 13.98Q9.92 15.55 8.82 16.33Q7.71 17.10 5.52 17.10L5.52 17.10ZM4.19 16.19L5.44 16.19Q6.62 16.19 7.11 15.68Q7.60 15.17 7.60 13.94L7.60 13.94Q7.60 13.14 7.40 12.62Q7.20 12.10 6.74 11.84Q6.29 11.58 5.47 11.58L5.47 11.58L4.19 11.58L4.19 16.19ZM4.19 10.67L4.99 10.67Q5.81 10.67 6.26 10.46Q6.72 10.24 6.92 9.78Q7.12 9.31 7.12 8.58L7.12 8.58Q7.12 7.46 6.63 7.02Q6.14 6.59 4.96 6.59L4.96 6.59L4.19 6.59L4.19 10.67ZM18.74 17.10L11.46 17.10L11.46 15.70L13.90 12.98Q14.83 11.95 15.35 11.21Q15.87 10.46 16.09 9.78Q16.30 9.10 16.30 8.34L16.30 8.34Q16.30 7.70 16.14 7.28Q15.98 6.86 15.67 6.65Q15.36 6.43 14.91 6.43L14.91 6.43Q14.30 6.43 13.95 6.74Q13.60 7.06 13.46 7.62Q13.31 8.19 13.31 9.01L13.31 9.01Q12.85 9.01 12.45 8.90Q12.05 8.80 11.81 8.51Q11.57 8.22 11.57 7.74L11.57 7.74Q11.57 7.14 11.94 6.64Q12.30 6.14 13.06 5.83Q13.81 5.52 14.91 5.52L14.91 5.52Q16.03 5.52 16.82 5.86Q17.60 6.19 18.01 6.81Q18.42 7.42 18.42 8.24L18.42 8.24Q18.42 8.77 18.26 9.27Q18.11 9.78 17.78 10.32Q17.44 10.86 16.89 11.50Q16.34 12.13 15.55 12.90L15.55 12.90L12.94 15.52L16.54 15.52Q17.12 15.52 17.43 15.20Q17.74 14.88 17.87 14.38L17.87 14.38L17.97 13.97L18.82 13.97L18.74 17.10ZM25.17 17.10L20.16 17.10L20.16 16.32L20.64 16.32Q20.93 16.32 21.16 16.25Q21.39 16.18 21.53 15.94Q21.66 15.71 21.66 15.25L21.66 15.25L21.66 7.50Q21.66 7.06 21.52 6.83Q21.38 6.61 21.14 6.54Q20.91 6.46 20.64 6.46L20.64 6.46L20.16 6.46L20.16 5.68L24.69 5.68Q26.90 5.68 27.99 6.38Q29.09 7.09 29.09 8.58L29.09 8.58Q29.09 9.28 28.83 9.76Q28.58 10.24 28.13 10.54Q27.68 10.85 27.07 11.04L27.07 11.04L27.07 11.12Q27.81 11.26 28.37 11.64Q28.93 12.02 29.25 12.60Q29.57 13.18 29.57 13.98L29.57 13.98Q29.57 15.55 28.46 16.33Q27.36 17.10 25.17 17.10L25.17 17.10ZM23.84 16.19L25.09 16.19Q26.27 16.19 26.76 15.68Q27.25 15.17 27.25 13.94L27.25 13.94Q27.25 13.14 27.05 12.62Q26.85 12.10 26.39 11.84Q25.94 11.58 25.12 11.58L25.12 11.58L23.84 11.58L23.84 16.19ZM23.84 10.67L24.64 10.67Q25.46 10.67 25.91 10.46Q26.37 10.24 26.57 9.78Q26.77 9.31 26.77 8.58L26.77 8.58Q26.77 7.46 26.28 7.02Q25.79 6.59 24.61 6.59L24.61 6.59L23.84 6.59L23.84 10.67ZM38.61 17.26L38.61 17.26Q37.65 17.26 36.97 17.08Q36.29 16.90 35.87 16.58Q35.46 16.26 35.26 15.85Q35.07 15.44 35.07 15.02L35.07 15.02Q35.07 14.56 35.27 14.26Q35.47 13.97 35.81 13.83Q36.14 13.70 36.58 13.70L36.58 13.70Q36.61 14.50 36.88 15.10Q37.15 15.71 37.65 16.04Q38.14 16.37 38.82 16.37L38.82 16.37Q39.81 16.37 40.36 15.86Q40.91 15.36 40.91 14.53L40.91 14.53Q40.91 13.97 40.64 13.58Q40.37 13.18 39.80 12.84Q39.23 12.50 38.32 12.13L38.32 12.13Q37.25 11.68 36.58 11.18Q35.92 10.67 35.62 10.02Q35.31 9.38 35.31 8.56L35.31 8.56Q35.31 7.60 35.81 6.93Q36.30 6.26 37.17 5.89Q38.03 5.52 39.10 5.52L39.10 5.52Q40.19 5.52 40.91 5.79Q41.63 6.06 42.00 6.49Q42.37 6.91 42.37 7.39L42.37 7.39Q42.37 7.94 41.96 8.26Q41.55 8.58 40.72 8.58L40.72 8.58Q40.72 8.06 40.54 7.57Q40.35 7.07 39.96 6.75Q39.57 6.43 38.93 6.43L38.93 6.43Q38.13 6.43 37.65 6.85Q37.17 7.26 37.17 8.03L37.17 8.03Q37.17 8.56 37.39 8.96Q37.62 9.36 38.19 9.72Q38.77 10.08 39.78 10.51L39.78 10.51Q40.82 10.93 41.49 11.42Q42.16 11.90 42.49 12.51Q42.82 13.12 42.82 13.92L42.82 13.92Q42.82 14.96 42.30 15.70Q41.79 16.45 40.84 16.86Q39.89 17.26 38.61 17.26ZM48.27 17.26L48.27 17.26Q46.43 17.26 45.37 16.15Q44.30 15.04 44.30 12.78L44.30 12.78Q44.30 10.54 45.32 9.44Q46.34 8.34 48.32 8.34L48.32 8.34Q50.18 8.34 51.23 9.44Q52.29 10.54 52.29 12.78L52.29 12.78Q52.29 15.04 51.27 16.15Q50.26 17.26 48.27 17.26ZM48.30 16.32L48.30 16.32Q48.99 16.32 49.40 15.92Q49.81 15.52 49.98 14.73Q50.16 13.94 50.16 12.78L50.16 12.78Q50.16 11.04 49.74 10.17Q49.31 9.30 48.29 9.30L48.29 9.30Q47.26 9.30 46.85 10.17Q46.43 11.04 46.43 12.78L46.43 12.78Q46.43 14.53 46.86 15.42Q47.28 16.32 48.30 16.32ZM58.24 17.10L53.36 17.10L53.36 16.32L53.55 16.32Q53.89 16.32 54.16 16.23Q54.43 16.14 54.59 15.90Q54.75 15.65 54.75 15.18L54.75 15.18L54.75 6.75Q54.75 6.29 54.56 6.07Q54.37 5.86 54.10 5.79Q53.82 5.73 53.55 5.73L53.55 5.73L53.36 5.73L53.36 4.94L56.83 4.94L56.83 15.18Q56.83 15.65 56.99 15.90Q57.15 16.14 57.43 16.23Q57.71 16.32 58.03 16.32L58.03 16.32L58.24 16.32L58.24 17.10ZM62.75 17.26L62.75 17.26Q61.42 17.26 60.75 16.50Q60.08 15.74 60.08 14.11L60.08 14.11L60.08 10.43Q60.08 9.95 59.95 9.71Q59.82 9.47 59.57 9.39Q59.31 9.31 58.93 9.31L58.93 9.31L58.88 9.31L58.88 8.53L62.18 8.53L62.18 13.81Q62.18 14.48 62.30 14.98Q62.43 15.49 62.73 15.76Q63.02 16.03 63.55 16.03L63.55 16.03Q64.14 16.03 64.52 15.72Q64.90 15.41 65.06 14.85Q65.23 14.29 65.23 13.54L65.23 13.54L65.23 10.38Q65.23 9.90 65.08 9.67Q64.93 9.44 64.67 9.38Q64.42 9.31 64.08 9.31L64.08 9.31L64.03 9.31L64.03 8.53L67.31 8.53L67.31 15.30Q67.31 15.74 67.46 15.97Q67.62 16.19 67.88 16.26Q68.14 16.32 68.46 16.32L68.46 16.32L68.58 16.32L68.58 17.10L65.63 17.10L65.33 15.90L65.25 15.90Q64.80 16.67 64.18 16.97Q63.57 17.26 62.75 17.26ZM72.94 17.26L72.94 17.26Q71.71 17.26 71.10 16.70Q70.48 16.14 70.48 14.75L70.48 14.75L70.48 9.55L69.28 9.55L69.28 8.80Q69.71 8.80 70.10 8.63Q70.48 8.46 70.74 8.19L70.74 8.19Q70.99 7.92 71.18 7.52Q71.36 7.12 71.47 6.54L71.47 6.54L72.58 6.54L72.58 8.53L74.64 8.53L74.64 9.55L72.58 9.55L72.58 14.67Q72.58 15.42 72.86 15.78Q73.14 16.13 73.70 16.13L73.70 16.13Q73.98 16.13 74.26 16.10Q74.53 16.06 74.78 16L74.78 16L74.78 16.91Q74.54 17.02 74.04 17.14Q73.54 17.26 72.94 17.26ZM80.30 17.10L75.42 17.10L75.42 16.32L75.63 16.32Q75.97 16.32 76.23 16.23Q76.50 16.14 76.66 15.90Q76.83 15.66 76.83 15.22L76.83 15.22L76.83 10.38Q76.83 9.94 76.66 9.70Q76.50 9.47 76.22 9.39Q75.95 9.31 75.63 9.31L75.63 9.31L75.49 9.31L75.49 8.53L78.91 8.53L78.91 15.18Q78.91 15.65 79.07 15.90Q79.23 16.14 79.50 16.23Q79.78 16.32 80.11 16.32L80.11 16.32L80.30 16.32L80.30 17.10ZM77.79 7.02L77.79 7.02Q77.30 7.02 76.95 6.76Q76.61 6.50 76.61 5.94L76.61 5.94Q76.61 5.34 76.95 5.10Q77.30 4.85 77.79 4.85L77.79 4.85Q78.29 4.85 78.64 5.10Q78.99 5.34 78.99 5.94L78.99 5.94Q78.99 6.50 78.64 6.76Q78.29 7.02 77.79 7.02ZM85.33 17.26L85.33 17.26Q83.49 17.26 82.42 16.15Q81.36 15.04 81.36 12.78L81.36 12.78Q81.36 10.54 82.38 9.44Q83.39 8.34 85.38 8.34L85.38 8.34Q87.23 8.34 88.29 9.44Q89.34 10.54 89.34 12.78L89.34 12.78Q89.34 15.04 88.33 16.15Q87.31 17.26 85.33 17.26ZM85.36 16.32L85.36 16.32Q86.05 16.32 86.46 15.92Q86.86 15.52 87.04 14.73Q87.22 13.94 87.22 12.78L87.22 12.78Q87.22 11.04 86.79 10.17Q86.37 9.30 85.34 9.30L85.34 9.30Q84.32 9.30 83.90 10.17Q83.49 11.04 83.49 12.78L83.49 12.78Q83.49 14.53 83.91 15.42Q84.34 16.32 85.36 16.32ZM95.22 17.10L90.53 17.10L90.53 16.32L90.64 16.32Q91.01 16.32 91.28 16.25Q91.55 16.18 91.71 15.93Q91.87 15.68 91.87 15.20L91.87 15.20L91.87 10.37Q91.87 9.90 91.72 9.68Q91.57 9.46 91.30 9.38Q91.04 9.31 90.69 9.31L90.69 9.31L90.61 9.31L90.61 8.53L93.68 8.53L93.89 9.73L93.97 9.73Q94.40 8.98 94.98 8.66Q95.57 8.34 96.43 8.34L96.43 8.34Q97.71 8.34 98.40 9.07Q99.09 9.81 99.09 11.44L99.09 11.44L99.09 15.18Q99.09 15.68 99.22 15.92Q99.34 16.16 99.59 16.24Q99.84 16.32 100.19 16.32L100.19 16.32L100.27 16.32L100.27 17.10L97.01 17.10L97.01 11.74Q97.01 10.70 96.70 10.14Q96.38 9.57 95.57 9.57L95.57 9.57Q94.98 9.57 94.62 9.92Q94.26 10.27 94.10 10.85Q93.95 11.42 93.95 12.10L93.95 12.10L93.95 15.26Q93.95 15.73 94.10 15.95Q94.26 16.18 94.52 16.25Q94.78 16.32 95.14 16.32L95.14 16.32L95.22 16.32L95.22 17.10ZM109.92 17.10L105.23 17.10L105.23 16.32L105.39 16.32Q105.76 16.32 106.02 16.25Q106.27 16.18 106.42 15.93Q106.58 15.68 106.58 15.20L106.58 15.20L106.58 10.34Q106.58 9.87 106.42 9.65Q106.27 9.42 106.01 9.35Q105.74 9.28 105.39 9.28L105.39 9.28L105.34 9.28L105.34 8.53L108.38 8.53L108.59 9.73L108.67 9.73Q109.09 8.98 109.68 8.66Q110.27 8.34 111.17 8.34L111.17 8.34Q111.71 8.34 112.17 8.48Q112.62 8.62 112.96 8.92Q113.30 9.22 113.49 9.73L113.49 9.73L113.60 9.73Q114.00 8.98 114.64 8.66Q115.28 8.34 116.13 8.34L116.13 8.34Q117.39 8.34 118.09 9.07Q118.78 9.81 118.78 11.44L118.78 11.44L118.78 15.18Q118.78 15.68 118.92 15.92Q119.06 16.16 119.31 16.24Q119.57 16.32 119.92 16.32L119.92 16.32L119.97 16.32L119.97 17.10L116.70 17.10L116.70 11.74Q116.70 10.70 116.38 10.14Q116.06 9.57 115.28 9.57L115.28 9.57Q114.72 9.57 114.38 9.89Q114.03 10.21 113.88 10.74Q113.73 11.26 113.73 11.90L113.73 11.90L113.73 15.18Q113.73 15.68 113.86 15.92Q114.00 16.16 114.26 16.24Q114.51 16.32 114.86 16.32L114.86 16.32L114.91 16.32L114.91 17.10L111.65 17.10L111.65 11.74Q111.65 10.70 111.34 10.14Q111.04 9.57 110.24 9.57L110.24 9.57Q109.65 9.57 109.30 9.92Q108.96 10.27 108.81 10.85Q108.66 11.42 108.66 12.10L108.66 12.10L108.66 15.26Q108.66 15.73 108.82 15.95Q108.98 16.18 109.24 16.25Q109.50 16.32 109.86 16.32L109.86 16.32L109.92 16.32L109.92 17.10ZM123.65 17.26L123.65 17.26Q122.94 17.26 122.38 16.98Q121.81 16.70 121.48 16.13Q121.15 15.55 121.15 14.67L121.15 14.67Q121.15 13.38 122.05 12.76Q122.94 12.14 124.75 12.08L124.75 12.08L126.08 12.03L126.08 11.12Q126.08 10.54 125.98 10.13Q125.89 9.71 125.62 9.48Q125.34 9.25 124.82 9.25L124.82 9.25Q124.34 9.25 124.06 9.46Q123.79 9.68 123.69 10.06Q123.58 10.45 123.58 10.98L123.58 10.98Q122.70 10.98 122.26 10.74Q121.82 10.50 121.82 9.94L121.82 9.94Q121.82 9.36 122.25 9.01Q122.67 8.66 123.39 8.50Q124.11 8.34 124.96 8.34L124.96 8.34Q126.56 8.34 127.36 8.95Q128.16 9.57 128.16 11.07L128.16 11.07L128.16 15.18Q128.16 15.63 128.26 15.87Q128.35 16.11 128.57 16.22Q128.78 16.32 129.14 16.32L129.14 16.32L129.18 16.32L129.18 17.10L126.51 17.10L126.21 15.90L126.08 15.90Q125.73 16.34 125.42 16.64Q125.10 16.94 124.70 17.10Q124.29 17.26 123.65 17.26ZM124.34 16.16L124.34 16.16Q124.86 16.16 125.26 15.90Q125.65 15.65 125.86 15.17Q126.08 14.69 126.08 14.05L126.08 14.05L126.08 12.82L125.25 12.86Q124.50 12.90 124.07 13.12Q123.65 13.34 123.46 13.74Q123.28 14.14 123.28 14.74L123.28 14.74Q123.28 15.22 123.40 15.53Q123.52 15.84 123.75 16Q123.98 16.16 124.34 16.16ZM133.82 17.26L133.82 17.26Q132.77 17.26 132.05 16.80Q131.33 16.34 130.94 15.35Q130.56 14.37 130.56 12.83L130.56 12.83Q130.56 11.28 130.94 10.30Q131.33 9.31 132.05 8.83Q132.77 8.35 133.81 8.35L133.81 8.35Q134.72 8.35 135.28 8.71Q135.84 9.07 136.19 9.63L136.19 9.63L136.27 9.63Q136.24 9.25 136.22 8.76Q136.21 8.27 136.21 7.86L136.21 7.86L136.21 6.75Q136.21 6.30 136.02 6.08Q135.84 5.86 135.54 5.79Q135.25 5.73 134.91 5.73L134.91 5.73L134.78 5.73L134.78 4.94L138.29 4.94L138.29 15.15Q138.29 15.63 138.46 15.89Q138.62 16.14 138.90 16.23Q139.18 16.32 139.55 16.32L139.55 16.32L139.68 16.32L139.68 17.10L136.67 17.10L136.37 15.79L136.29 15.79Q135.94 16.46 135.35 16.86Q134.77 17.26 133.82 17.26ZM134.35 16.13L134.35 16.13Q135.42 16.13 135.82 15.31Q136.21 14.50 136.21 12.82L136.21 12.82Q136.21 11.20 135.82 10.34Q135.42 9.47 134.35 9.47L134.35 9.47Q133.76 9.47 133.39 9.86Q133.02 10.26 132.86 11Q132.69 11.74 132.69 12.83L132.69 12.83Q132.69 14.48 133.07 15.30Q133.46 16.13 134.35 16.13ZM144.74 17.26L144.74 17.26Q142.80 17.26 141.78 16.11Q140.75 14.96 140.75 12.86L140.75 12.86Q140.75 10.62 141.75 9.48Q142.75 8.34 144.56 8.34L144.56 8.34Q146.24 8.34 147.19 9.30Q148.14 10.27 148.14 12.18L148.14 12.18L148.14 12.98L142.88 12.98Q142.91 14.62 143.49 15.38Q144.06 16.13 145.17 16.13L145.17 16.13Q145.98 16.13 146.54 15.76Q147.09 15.39 147.36 14.90L147.36 14.90Q147.55 14.94 147.68 15.11Q147.81 15.28 147.81 15.54L147.81 15.54Q147.81 15.90 147.49 16.31Q147.17 16.72 146.49 16.99Q145.81 17.26 144.74 17.26ZM142.91 12L146.02 12Q146.02 10.77 145.69 10.04Q145.36 9.31 144.58 9.31L144.58 9.31Q143.82 9.31 143.39 10Q142.96 10.69 142.91 12L142.91 12ZM158.88 17.10L153.39 17.10L153.39 16.32L153.70 16.32Q153.98 16.32 154.26 16.25Q154.53 16.18 154.71 15.94Q154.90 15.71 154.90 15.23L154.90 15.23L154.90 9.49L153.46 9.49L153.46 8.53L154.90 8.53L154.90 7.86Q154.90 6.40 155.67 5.60Q156.45 4.80 157.98 4.80L157.98 4.80Q158.94 4.80 159.48 4.96Q160.02 5.12 160.22 5.38Q160.43 5.63 160.43 5.95L160.43 5.95Q160.43 6.24 160.27 6.47Q160.11 6.70 159.76 6.83Q159.41 6.96 158.85 6.96L158.85 6.96Q158.85 6.69 158.78 6.38Q158.70 6.06 158.52 5.86Q158.34 5.65 157.98 5.65L157.98 5.65Q157.44 5.65 157.21 6.12Q156.98 6.59 156.98 7.63L156.98 7.63L156.98 8.53L159.20 8.53L159.20 9.49L156.98 9.49L156.98 15.23Q156.98 15.71 157.15 15.94Q157.33 16.18 157.61 16.25Q157.89 16.32 158.18 16.32L158.18 16.32L158.88 16.32L158.88 17.10ZM164.10 17.26L164.10 17.26Q162.26 17.26 161.19 16.15Q160.13 15.04 160.13 12.78L160.13 12.78Q160.13 10.54 161.14 9.44Q162.16 8.34 164.14 8.34L164.14 8.34Q166.00 8.34 167.06 9.44Q168.11 10.54 168.11 12.78L168.11 12.78Q168.11 15.04 167.10 16.15Q166.08 17.26 164.10 17.26ZM164.13 16.32L164.13 16.32Q164.82 16.32 165.22 15.92Q165.63 15.52 165.81 14.73Q165.98 13.94 165.98 12.78L165.98 12.78Q165.98 11.04 165.56 10.17Q165.14 9.30 164.11 9.30L164.11 9.30Q163.09 9.30 162.67 10.17Q162.26 11.04 162.26 12.78L162.26 12.78Q162.26 14.53 162.68 15.42Q163.10 16.32 164.13 16.32ZM174.40 17.10L169.33 17.10L169.33 16.32L169.38 16.32Q169.74 16.32 170.02 16.24Q170.30 16.16 170.46 15.91Q170.62 15.66 170.62 15.17L170.62 15.17L170.62 10.40Q170.62 9.92 170.47 9.69Q170.32 9.46 170.05 9.38Q169.78 9.31 169.42 9.31L169.42 9.31L169.38 9.31L169.38 8.53L172.29 8.53L172.61 10.08L172.69 10.08Q172.93 9.55 173.21 9.16Q173.49 8.77 173.90 8.56Q174.32 8.35 175.01 8.35L175.01 8.35Q175.90 8.35 176.32 8.71Q176.74 9.07 176.74 9.66L176.74 9.66Q176.74 10.30 176.28 10.65Q175.82 10.99 174.93 10.99L174.93 10.99Q174.93 10.54 174.86 10.26Q174.80 9.98 174.62 9.84Q174.45 9.70 174.14 9.70L174.14 9.70Q173.74 9.70 173.47 9.99Q173.20 10.29 173.04 10.77Q172.88 11.25 172.80 11.78Q172.72 12.32 172.72 12.78L172.72 12.78L172.72 15.25Q172.72 15.71 172.88 15.94Q173.04 16.18 173.31 16.25Q173.58 16.32 173.90 16.32L173.90 16.32L174.40 16.32L174.40 17.10ZM181.63 20.83L181.63 19.97Q182.46 19.97 183.06 19.76Q183.65 19.55 184.05 19.17Q184.45 18.78 184.73 18.26Q185.01 17.74 185.20 17.14L185.20 17.14L182.29 10.11Q182.16 9.78 182.02 9.61Q181.87 9.44 181.69 9.38Q181.50 9.31 181.22 9.31L181.22 9.31L181.15 9.31L181.15 8.53L185.47 8.53L185.47 9.31L185.42 9.31Q184.93 9.31 184.70 9.47Q184.46 9.63 184.46 9.98L184.46 9.98Q184.46 10.13 184.50 10.29Q184.54 10.45 184.61 10.62L184.61 10.62L185.66 13.34Q185.81 13.70 185.93 14.08Q186.05 14.46 186.15 14.82Q186.26 15.17 186.29 15.41L186.29 15.41Q186.37 14.98 186.51 14.57Q186.66 14.16 186.78 13.79L186.78 13.79L187.81 10.75Q187.87 10.58 187.92 10.36Q187.97 10.14 187.97 10L187.97 10Q187.97 9.63 187.72 9.47Q187.47 9.31 186.98 9.31L186.98 9.31L186.91 9.31L186.91 8.53L190.32 8.53L190.32 9.31L190.26 9.31Q189.97 9.31 189.75 9.42Q189.54 9.52 189.38 9.78Q189.22 10.05 189.04 10.51L189.04 10.51L186.62 17.12Q186.21 18.26 185.83 18.98Q185.46 19.70 184.97 20.10Q184.48 20.51 183.74 20.67Q182.99 20.83 181.86 20.83L181.86 20.83L181.63 20.83ZM195.09 17.26L195.09 17.26Q193.25 17.26 192.18 16.15Q191.12 15.04 191.12 12.78L191.12 12.78Q191.12 10.54 192.14 9.44Q193.15 8.34 195.14 8.34L195.14 8.34Q196.99 8.34 198.05 9.44Q199.10 10.54 199.10 12.78L199.10 12.78Q199.10 15.04 198.09 16.15Q197.07 17.26 195.09 17.26ZM195.12 16.32L195.12 16.32Q195.81 16.32 196.22 15.92Q196.62 15.52 196.80 14.73Q196.98 13.94 196.98 12.78L196.98 12.78Q196.98 11.04 196.55 10.17Q196.13 9.30 195.10 9.30L195.10 9.30Q194.08 9.30 193.66 10.17Q193.25 11.04 193.25 12.78L193.25 12.78Q193.25 14.53 193.67 15.42Q194.10 16.32 195.12 16.32ZM204.19 17.26L204.19 17.26Q202.86 17.26 202.19 16.50Q201.52 15.74 201.52 14.11L201.52 14.11L201.52 10.43Q201.52 9.95 201.39 9.71Q201.26 9.47 201.01 9.39Q200.75 9.31 200.37 9.31L200.37 9.31L200.32 9.31L200.32 8.53L203.62 8.53L203.62 13.81Q203.62 14.48 203.74 14.98Q203.87 15.49 204.17 15.76Q204.46 16.03 204.99 16.03L204.99 16.03Q205.58 16.03 205.96 15.72Q206.34 15.41 206.50 14.85Q206.67 14.29 206.67 13.54L206.67 13.54L206.67 10.38Q206.67 9.90 206.52 9.67Q206.37 9.44 206.11 9.38Q205.86 9.31 205.52 9.31L205.52 9.31L205.47 9.31L205.47 8.53L208.75 8.53L208.75 15.30Q208.75 15.74 208.90 15.97Q209.06 16.19 209.32 16.26Q209.58 16.32 209.90 16.32L209.90 16.32L210.02 16.32L210.02 17.10L207.07 17.10L206.77 15.90L206.69 15.90Q206.24 16.67 205.62 16.97Q205.01 17.26 204.19 17.26Z" transform="translate(0, 0)"></path></g></svg> <svg y="270.9061460876465" viewBox="2.0199999809265137 11 195.08999633789062 32.01770782470703" x="119" height="32.01770782470703" width="195.08999633789062" style="overflow: visible;"><g fill="#ffffff" fill-opacity="1" style=""><path d="M10.16 11.09L10.16 11.09Q13.06 11.00 15.12 11.84Q17.18 12.68 18.29 14.20Q19.40 15.71 19.40 17.72L19.40 17.72Q19.40 19.36 18.73 20.69Q18.06 22.01 16.97 22.91Q15.88 23.81 14.60 24.17Q13.31 24.53 12.14 24.23L12.14 24.23Q13.48 24.23 14.91 24.68Q16.34 25.12 17.60 26.08Q18.86 27.05 19.61 28.56Q20.37 30.07 20.37 32.17L20.37 32.17Q20.37 34.57 19.34 36.52Q18.31 38.47 16.51 39.90Q14.70 41.33 12.37 42.13Q10.04 42.92 7.41 43.01Q4.79 43.09 2.14 42.34L2.14 42.34L2.23 41.92Q4.79 41.96 7.06 41.27Q9.32 40.57 11.09 39.23Q12.85 37.88 13.86 36.02Q14.87 34.15 14.87 31.84L14.87 31.84Q14.87 29.40 13.71 27.87Q12.56 26.33 10.69 25.60Q8.82 24.86 6.59 24.86L6.59 24.86L6.68 24.44Q8.57 24.44 10.31 23.56Q12.05 22.68 13.10 21.06Q14.15 19.45 14.03 17.26L14.03 17.26Q13.94 15.88 13.29 14.83Q12.64 13.78 11.53 13.21Q10.42 12.64 8.86 12.68L8.86 12.68Q6.30 12.77 5.02 14.51Q3.74 16.25 3.86 19.32L3.86 19.32L3.44 19.32L2.02 14.07Q3.28 12.85 5.29 12.01Q7.31 11.17 10.16 11.09ZM32.72 11.59L32.72 11.59L37.88 11.59Q41.20 11.59 43.37 12.62Q45.53 13.65 46.62 15.46Q47.71 17.26 47.75 19.66L47.75 19.66Q47.80 21.76 47.02 23.44Q46.24 25.12 44.88 26.25Q43.51 27.38 41.81 27.91Q40.11 28.43 38.26 28.20Q36.41 27.97 34.69 26.92L34.69 26.92L34.69 26.50Q34.69 26.50 35.26 26.54Q35.83 26.59 36.75 26.44Q37.67 26.29 38.70 25.85Q39.73 25.41 40.61 24.42Q41.50 23.44 41.96 21.80L41.96 21.80Q42.13 21.25 42.19 20.58Q42.25 19.91 42.21 19.28L42.21 19.28Q42.17 16.51 40.74 14.85Q39.31 13.19 36.71 13.19L36.71 13.19L33.14 13.19Q33.14 13.19 33.03 12.79Q32.93 12.39 32.82 11.99Q32.72 11.59 32.72 11.59ZM28.14 11.59L33.26 11.59L33.26 40.99L28.14 40.99L28.14 11.59ZM28.14 37.93L28.27 37.93L28.27 40.99L24.91 40.99L24.91 40.57Q24.95 40.57 25.18 40.57Q25.41 40.57 25.45 40.57L25.45 40.57Q26.54 40.57 27.32 39.80Q28.10 39.02 28.14 37.93L28.14 37.93ZM28.27 11.59L28.27 14.66L28.14 14.66Q28.14 13.57 27.34 12.79Q26.54 12.01 25.45 12.01L25.45 12.01Q25.41 12.01 25.20 12.01Q24.99 12.01 24.95 12.01L24.95 12.01L24.91 11.59L28.27 11.59ZM33.14 40.99L33.14 37.93L33.26 37.93Q33.31 39.02 34.08 39.80Q34.86 40.57 35.95 40.57L35.95 40.57Q35.95 40.57 36.20 40.57Q36.46 40.57 36.50 40.57L36.50 40.57L36.50 40.99L33.14 40.99ZM71.02 11.00L71.02 11.00Q71.82 11.00 72.91 11.09Q74.00 11.17 75.12 11.32Q76.23 11.47 77.11 11.61Q77.99 11.76 78.33 11.93L78.33 11.93L77.99 17.26L77.57 17.26Q77.57 15.12 76.04 13.86Q74.51 12.60 72.07 12.60L72.07 12.60Q69.64 12.60 68.19 13.86Q66.74 15.12 66.70 16.93L66.70 16.93Q66.61 17.98 67.31 18.96Q68.00 19.95 69.17 20.79L69.17 20.79L77.28 26.80Q79.00 27.93 79.80 29.55Q80.60 31.16 80.51 33.18L80.51 33.18Q80.39 37.04 77.72 39.31Q75.05 41.58 70.48 41.58L70.48 41.58Q68.92 41.58 67.31 41.31Q65.69 41.03 64.34 40.47Q63.00 39.90 62.20 39.10L62.20 39.10Q61.95 38.26 61.99 37.07Q62.03 35.87 62.33 34.59Q62.62 33.31 63.04 32.42L63.04 32.42L63.42 32.42Q63.25 34.57 64.13 36.31Q65.02 38.05 66.72 39.04Q68.42 40.03 70.73 39.98L70.73 39.98Q73.33 39.90 74.91 38.51Q76.48 37.13 76.48 34.94L76.48 34.94Q76.48 33.68 75.81 32.66Q75.14 31.63 73.71 30.79L73.71 30.79L66.11 25.03Q64.18 23.77 63.36 21.99Q62.54 20.20 62.66 18.27L62.66 18.27Q62.79 16.25 63.80 14.60Q64.81 12.94 66.63 11.97Q68.46 11.00 71.02 11.00ZM73.96 11.42L78.37 11.42L78.33 12.31L73.96 12.31L73.96 11.42ZM98.49 38.56L112.10 15.25L112.48 19.03L101.68 37.46Q101.68 37.46 101.33 38.14Q100.97 38.81 100.61 39.80Q100.25 40.78 100.17 41.71L100.17 41.71L99.79 41.71L98.49 38.56ZM85.89 38.26L86.69 38.26L86.69 40.99L82.49 40.99L82.49 40.57Q82.49 40.57 82.78 40.57Q83.08 40.57 83.08 40.57L83.08 40.57Q84.13 40.57 84.92 39.96Q85.72 39.35 85.89 38.26L85.89 38.26ZM88.12 38.89L88.33 38.89Q88.28 39.40 88.62 39.98Q88.96 40.57 89.84 40.61L89.84 40.61L90.43 40.61L90.43 40.99L87.95 40.99L88.12 38.89ZM85.51 40.99L89.17 15.25L89.50 15.25L90.76 18.77L88.12 40.99L85.51 40.99ZM88.58 23.18L89.50 15.25L101.64 34.94L99.79 41.71L88.58 23.18ZM112.10 15.25L112.48 15.25L116.26 40.99L110.88 40.99L108.57 23.73L112.10 15.25ZM115.00 40.99L115.00 38.26L115.84 38.26Q116.00 39.35 116.80 39.96Q117.60 40.57 118.61 40.57L118.61 40.57Q118.61 40.57 118.92 40.57Q119.24 40.57 119.24 40.57L119.24 40.57L119.24 40.99L115.00 40.99ZM110.59 38.89L110.59 38.89L110.84 38.89L111.01 40.99L108.53 40.99L108.53 40.61L109.12 40.61Q110.08 40.57 110.38 39.98Q110.67 39.40 110.59 38.89ZM130.83 21.21L132.72 14.83L144.86 40.74L139.02 40.74L130.83 21.21ZM121.88 38.14L124.74 38.14Q124.28 39.31 124.87 39.94Q125.45 40.57 126.17 40.57L126.17 40.57L126.50 40.57L126.50 40.99L118.23 40.99L118.23 40.57Q118.23 40.57 118.40 40.57Q118.57 40.57 118.57 40.57L118.57 40.57Q119.45 40.57 120.37 40.01Q121.30 39.44 121.88 38.14L121.88 38.14ZM132.34 14.83L132.72 14.83L132.85 19.15L123.56 40.87L120.62 40.87L130.49 19.66Q130.54 19.49 130.81 18.90Q131.08 18.31 131.42 17.51Q131.75 16.72 132.03 15.98Q132.30 15.25 132.34 14.83L132.34 14.83ZM125.92 32.26L136.79 32.26L136.79 33.77L125.92 33.77L125.92 32.26ZM137.93 38.14L137.93 38.14L143.64 38.14Q144.23 39.44 145.15 40.01Q146.08 40.57 146.92 40.57L146.92 40.57Q146.92 40.57 147.08 40.57Q147.25 40.57 147.25 40.57L147.25 40.57L147.25 40.99L136.16 40.99L136.16 40.57L136.50 40.57Q137.21 40.57 137.80 39.94Q138.39 39.31 137.93 38.14ZM155.61 15.79L155.61 15.79L160.40 15.79Q162.25 15.79 163.86 16.17Q165.48 16.55 166.72 17.37Q167.96 18.19 168.65 19.49Q169.34 20.79 169.34 22.64L169.34 22.64Q169.34 24.19 168.67 25.68Q168 27.17 166.66 28.20Q165.31 29.23 163.30 29.48L163.30 29.48Q164.35 29.82 165.42 30.91Q166.49 32.00 167.08 32.97L167.08 32.97Q167.20 33.18 167.69 33.92Q168.17 34.65 168.88 35.64Q169.60 36.62 170.35 37.59L170.35 37.59Q171.19 38.68 171.86 39.33Q172.54 39.98 173.27 40.28Q174.01 40.57 174.93 40.57L174.93 40.57L174.93 40.99L172.16 40.99Q169.89 40.99 168.34 40.57Q166.78 40.15 165.71 39.27Q164.64 38.39 163.76 37.09L163.76 37.09Q163.46 36.62 162.98 35.83Q162.50 35.03 161.99 34.17Q161.49 33.31 161.07 32.53Q160.65 31.75 160.52 31.33L160.52 31.33Q159.89 30.07 159.05 29.40Q158.21 28.73 157.42 28.69L157.42 28.69L157.42 28.31Q157.46 28.31 157.88 28.33Q158.30 28.35 158.93 28.31L158.93 28.31Q159.89 28.27 160.88 28.01Q161.87 27.76 162.67 26.92Q163.46 26.08 163.88 24.32L163.88 24.32Q164.01 23.98 164.07 23.48Q164.14 22.97 164.09 22.34L164.09 22.34Q164.05 20.92 163.59 19.97Q163.13 19.03 162.41 18.48Q161.70 17.93 160.86 17.68Q160.02 17.43 159.26 17.39L159.26 17.39Q158.05 17.35 157.12 17.37Q156.20 17.39 155.99 17.39L155.99 17.39Q155.95 17.35 155.86 16.97Q155.78 16.59 155.69 16.19Q155.61 15.79 155.61 15.79ZM151.07 15.79L156.03 15.79L156.03 40.99L151.07 40.99L151.07 15.79ZM151.12 38.35L151.20 38.35L151.49 40.99L148.30 40.99L148.30 40.57Q148.30 40.57 148.53 40.57Q148.76 40.57 148.81 40.57L148.81 40.57Q149.77 40.57 150.42 39.92Q151.07 39.27 151.12 38.35L151.12 38.35ZM151.49 15.79L151.20 18.44L151.12 18.44Q151.07 17.47 150.42 16.84Q149.77 16.21 148.85 16.21L148.85 16.21Q148.76 16.21 148.53 16.21Q148.30 16.21 148.30 16.21L148.30 16.21L148.30 15.79L151.49 15.79ZM155.65 40.99L155.95 38.35L156.03 38.35Q156.07 39.31 156.79 39.94Q157.50 40.57 158.38 40.57L158.38 40.57Q158.38 40.57 158.59 40.57Q158.80 40.57 158.84 40.57L158.84 40.57L158.89 40.99L155.65 40.99ZM182.66 15.92L187.66 15.92L187.66 40.99L182.66 40.99L182.66 15.92ZM173.21 15.75L197.11 15.75L197.11 17.30L173.21 17.30L173.21 15.75ZM193.41 17.18L197.11 17.18L197.11 21.13L196.64 21.13L196.64 20.62Q196.69 19.15 195.83 18.25Q194.96 17.35 193.41 17.30L193.41 17.30L193.41 17.18ZM197.11 15.08L197.11 15.08L197.11 16.17L192.57 15.75Q193.41 15.75 194.33 15.65Q195.26 15.54 196.04 15.37Q196.81 15.20 197.11 15.08ZM182.66 38.35L182.74 38.35L182.74 40.99L179.84 40.99L179.84 40.57Q179.84 40.57 180.08 40.57Q180.31 40.57 180.31 40.57L180.31 40.57Q181.27 40.57 181.94 39.92Q182.62 39.27 182.66 38.35L182.66 38.35ZM187.49 40.99L187.49 38.35L187.66 38.35Q187.66 39.27 188.35 39.92Q189.04 40.57 190.01 40.57L190.01 40.57Q190.01 40.57 190.22 40.57Q190.43 40.57 190.43 40.57L190.43 40.57L190.43 40.99L187.49 40.99ZM173.21 17.18L176.90 17.18L176.90 17.30Q175.35 17.35 174.49 18.25Q173.63 19.15 173.63 20.62L173.63 20.62L173.63 21.13L173.21 21.13L173.21 17.18ZM173.21 16.17L173.21 15.08Q173.54 15.20 174.30 15.37Q175.06 15.54 175.98 15.65Q176.90 15.75 177.70 15.75L177.70 15.75L173.21 16.17Z" transform="translate(0, 0)"></path></g></svg></svg>